<svg width="25" height="25" viewBox="0 0 25 25" fill="none" xmlns="http://www.w3.org/2000/svg">
<g id="fe:search" opacity="0.5">
<path id="Vector" fill-rule="evenodd" clip-rule="evenodd" d="M16.8257 15.3987L22.2057 20.7787C22.3948 20.968 22.501 21.2246 22.5009 21.4921C22.5008 21.7596 22.3945 22.0161 22.2052 22.2052C22.016 22.3943 21.7594 22.5005 21.4919 22.5004C21.2244 22.5003 20.9678 22.394 20.7787 22.2047L15.3987 16.8247C13.7905 18.0704 11.768 18.6566 9.74287 18.4641C7.71772 18.2716 5.84198 17.3148 4.49723 15.7884C3.15248 14.2619 2.43973 12.2806 2.504 10.2473C2.56826 8.21402 3.4047 6.2816 4.84315 4.84315C6.2816 3.4047 8.21402 2.56826 10.2473 2.504C12.2806 2.43973 14.2619 3.15248 15.7884 4.49723C17.3148 5.84198 18.2716 7.71772 18.4641 9.74287C18.6566 11.768 18.0704 13.7905 16.8247 15.3987H16.8257ZM10.5007 16.4997C12.092 16.4997 13.6182 15.8676 14.7434 14.7424C15.8686 13.6172 16.5007 12.091 16.5007 10.4997C16.5007 8.90845 15.8686 7.38232 14.7434 6.2571C13.6182 5.13189 12.092 4.49974 10.5007 4.49974C8.90944 4.49974 7.38332 5.13189 6.2581 6.2571C5.13289 7.38232 4.50074 8.90845 4.50074 10.4997C4.50074 12.091 5.13289 13.6172 6.2581 14.7424C7.38332 15.8676 8.90944 16.4997 10.5007 16.4997Z" fill="#474E5D"/>
</g>
</svg>
