<svg width="17" height="17" viewBox="0 0 17 17" fill="none" xmlns="http://www.w3.org/2000/svg">
<g id="image-up">
<path id="Icon" d="M11.1667 3.83331L13.1667 1.83331M13.1667 1.83331L15.1667 3.83331M13.1667 1.83331V5.83331M8.83333 2.49998H5.7C4.5799 2.49998 4.01984 2.49998 3.59202 2.71797C3.21569 2.90971 2.90973 3.21567 2.71799 3.592C2.5 4.01982 2.5 4.57987 2.5 5.69998V11.3C2.5 12.4201 2.5 12.9801 2.71799 13.408C2.90973 13.7843 3.21569 14.0902 3.59202 14.282C4.01984 14.5 4.57989 14.5 5.7 14.5H11.8333C12.4533 14.5 12.7633 14.5 13.0176 14.4318C13.7078 14.2469 14.2469 13.7078 14.4319 13.0176C14.5 12.7633 14.5 12.4533 14.5 11.8333M7.5 6.16665C7.5 6.90303 6.90305 7.49998 6.16667 7.49998C5.43029 7.49998 4.83333 6.90303 4.83333 6.16665C4.83333 5.43027 5.43029 4.83331 6.16667 4.83331C6.90305 4.83331 7.5 5.43027 7.5 6.16665ZM10.4934 8.44541L4.8541 13.572C4.53691 13.8604 4.37831 14.0045 4.36429 14.1294C4.35213 14.2377 4.39364 14.3451 4.47546 14.417C4.56985 14.5 4.78419 14.5 5.21286 14.5H11.4707C12.4301 14.5 12.9098 14.5 13.2866 14.3388C13.7596 14.1364 14.1365 13.7596 14.3388 13.2866C14.5 12.9098 14.5 12.4301 14.5 11.4706C14.5 11.1478 14.5 10.9864 14.4647 10.8361C14.4204 10.6472 14.3353 10.4702 14.2155 10.3176C14.1202 10.1961 13.9941 10.0953 13.742 9.89362L11.8772 8.40175C11.6249 8.19992 11.4988 8.099 11.3599 8.06339C11.2374 8.032 11.1086 8.03606 10.9884 8.07511C10.852 8.11941 10.7324 8.22808 10.4934 8.44541Z" stroke="#80889A" stroke-linecap="round" stroke-linejoin="round"/>
</g>
</svg>
