<svg width="16" height="16" viewBox="0 0 16 16" fill="none" xmlns="http://www.w3.org/2000/svg">
<g id="Map Pin">
<path id="Vector" d="M13.3307 6.66665C13.3307 10.6666 7.9974 14.6666 7.9974 14.6666C7.9974 14.6666 2.66406 10.6666 2.66406 6.66665C2.66406 5.25216 3.22597 3.8956 4.22616 2.89541C5.22635 1.89522 6.58291 1.33331 7.9974 1.33331C9.41188 1.33331 10.7684 1.89522 11.7686 2.89541C12.7688 3.8956 13.3307 5.25216 13.3307 6.66665Z" stroke="white" stroke-width="1.5" stroke-linecap="round" stroke-linejoin="round"/>
<path id="Vector_2" d="M8 8.66669C9.10457 8.66669 10 7.77126 10 6.66669C10 5.56212 9.10457 4.66669 8 4.66669C6.89543 4.66669 6 5.56212 6 6.66669C6 7.77126 6.89543 8.66669 8 8.66669Z" stroke="white" stroke-width="1.5" stroke-linecap="round" stroke-linejoin="round"/>
</g>
</svg>
