<svg width="16" height="16" viewBox="0 0 16 16" fill="none" xmlns="http://www.w3.org/2000/svg">
<g id="phone-call-01" clip-path="url(#clip0_4004_4887)">
<path id="Icon" d="M9.36904 3.99998C10.0202 4.12702 10.6186 4.44548 11.0878 4.9146C11.5569 5.38372 11.8753 5.98216 12.0024 6.63331M9.36904 1.33331C10.7219 1.4836 11.9834 2.08943 12.9465 3.05132C13.9096 4.01321 14.5171 5.27399 14.669 6.62665M6.82036 9.24203C6.01931 8.44097 5.38679 7.53521 4.92279 6.5688C4.88288 6.48567 4.86292 6.44411 4.84759 6.39152C4.79311 6.20461 4.83224 5.97511 4.94558 5.81682C4.97748 5.77228 5.01558 5.73417 5.09179 5.65797C5.32486 5.4249 5.4414 5.30836 5.51759 5.19118C5.80492 4.74925 5.80492 4.17953 5.51759 3.7376C5.4414 3.62042 5.32486 3.50388 5.09179 3.27081L4.96188 3.1409C4.60758 2.7866 4.43043 2.60945 4.24018 2.51322C3.86181 2.32184 3.41496 2.32184 3.03659 2.51322C2.84633 2.60945 2.66919 2.7866 2.31489 3.1409L2.2098 3.24599C1.85672 3.59907 1.68018 3.77561 1.54535 4.01563C1.39573 4.28197 1.28816 4.69563 1.28907 5.00111C1.28989 5.27641 1.34329 5.46456 1.45009 5.84085C2.02407 7.86312 3.10706 9.77136 4.69904 11.3633C6.29103 12.9553 8.19927 14.0383 10.2215 14.6123C10.5978 14.7191 10.786 14.7725 11.0613 14.7733C11.3668 14.7742 11.7804 14.6667 12.0468 14.517C12.2868 14.3822 12.4633 14.2057 12.8164 13.8526L12.9215 13.7475C13.2758 13.3932 13.4529 13.2161 13.5492 13.0258C13.7405 12.6474 13.7405 12.2006 13.5492 11.8222C13.4529 11.632 13.2758 11.4548 12.9215 11.1005L12.7916 10.9706C12.5585 10.7375 12.442 10.621 12.3248 10.5448C11.8829 10.2575 11.3131 10.2575 10.8712 10.5448C10.754 10.621 10.6375 10.7375 10.4044 10.9706C10.3282 11.0468 10.2901 11.0849 10.2456 11.1168C10.0873 11.2301 9.85778 11.2693 9.67088 11.2148C9.61828 11.1995 9.57672 11.1795 9.49359 11.1396C8.52718 10.6756 7.62142 10.0431 6.82036 9.24203Z" stroke="white" stroke-width="1.5" stroke-linecap="round" stroke-linejoin="round"/>
</g>
<defs>
<clipPath id="clip0_4004_4887">
<rect width="16" height="16" fill="white"/>
</clipPath>
</defs>
</svg>
